<svg width="375" height="385" viewBox="0 0 375 385" fill="none" xmlns="http://www.w3.org/2000/svg">
<mask id="mask0" mask-type="alpha" maskUnits="userSpaceOnUse" x="-382" y="0" width="1075" height="605">
<path d="M-357.896 353.414C-361.705 315.74 -315.873 273.979 -263.203 244.336C-235.853 229.111 -206.235 215.647 -174.2 207.853C-142.584 200.171 -108.42 198.65 -83.4358 206.433C-52.5037 216.307 -38.8674 238.712 -20.8622 257.315C2.07364 280.913 35.3748 299.629 75.4507 311.791C98.4299 318.794 124.366 323.427 152.624 321.646C203.365 318.316 254.485 294.615 294.942 267.982C335.398 241.348 369.027 211.016 410.519 184.895C452.01 158.774 504.782 136.21 554.859 135.427C604.517 134.756 641.804 156.615 651.089 186.24C660.308 215.62 644.195 250.998 615.216 281.926C586.237 312.855 544.59 340.071 500.699 363.939C393.706 422.089 266.457 463.292 141.976 477.958C17.4943 492.624 -103.514 480.037 -191.294 440.647" fill="url(#paint0_linear)"/>
</mask>
<g mask="url(#mask0)">
<path d="M428.542 372.215C428.542 378.843 423.17 384.215 416.542 384.215L-111.458 384.215C-118.085 384.215 -123.458 378.843 -123.458 372.215L-123.458 -228.785C-123.458 -235.412 -118.085 -240.785 -111.458 -240.785L416.542 -240.785C423.17 -240.785 428.542 -235.412 428.542 -228.785L428.542 372.215Z" fill="url(#paint1_linear)"/>
</g>
<defs>
<linearGradient id="paint0_linear" x1="268.726" y1="694.538" x2="247.34" y2="24.8779" gradientUnits="userSpaceOnUse">
<stop stop-color="#0FB269"/>
<stop offset="1" stop-color="white" stop-opacity="0"/>
</linearGradient>
<linearGradient id="paint1_linear" x1="44.4677" y1="495.435" x2="-10.937" y2="141.227" gradientUnits="userSpaceOnUse">
<stop stop-color="#0FB269"/>
<stop offset="1" stop-color="white" stop-opacity="0"/>
</linearGradient>
</defs>
</svg>
